<svg width="1440" height="687" viewBox="0 0 1440 687" fill="none" xmlns="http://www.w3.org/2000/svg">
<path d="M1503.26 450.152C1502.56 450.82 1501.58 451.335 1501.17 452.176C1491.86 471.978 1478.27 488.069 1463.5 503.072C1442.53 524.484 1419.54 543.447 1394.91 559.647C1380.04 569.392 1364.35 577.009 1347.05 580.052C1341.28 581.053 1335.45 581.659 1329.61 581.867C1319.66 582.292 1309.7 582.578 1299.76 582.427C1272.46 581.926 1250.49 570.252 1234.99 545.279C1230.59 538.157 1226.25 530.975 1221.58 524.057C1214.9 513.938 1209.96 502.602 1206.99 490.593C1202.89 474.847 1200 458.764 1198.34 442.51C1198.33 441.415 1198.08 440.339 1197.6 439.372C1197.12 438.406 1196.44 437.58 1195.6 436.965C1177.19 423.755 1164.83 404.955 1154.98 384.143C1147.05 367.323 1140.06 349.99 1132.06 333.172C1119.86 307.303 1107.76 281.353 1094.59 256.059C1079.23 226.284 1058.7 200.011 1034.12 178.702C1013.2 160.638 990.337 145.785 964.42 137.161C945.908 131.039 926.942 129.013 907.689 128.302C875.829 126.914 847.187 137.036 820.45 155.021C797.113 170.773 775.506 189.347 756.044 210.387C737.422 230.306 720.726 252.237 706.216 275.839C689.625 302.79 677.874 332.903 671.579 364.603C671.278 366.117 671.05 367.65 670.704 369.72C672.793 369.8 674.516 369.926 676.2 369.935C695.385 369.875 714.518 372.248 733.209 377.003C746.779 380.461 759.788 386.147 771.784 393.863C797.046 410.477 813.841 434.374 822.54 464.873C826.809 479.757 830.552 494.848 831.721 510.346C833.381 532.502 834.385 554.77 829.155 576.58C824.664 596.012 816.725 614.299 805.781 630.422C795.979 644.637 782.822 653.715 766.55 655.746C745.825 658.694 724.828 652.83 707.958 639.38C695.373 629.396 684.862 616.657 677.107 601.993C666.942 583.152 660.793 562.727 656.369 541.555C651.804 519.691 651.279 497.533 651.284 475.306C651.479 444.998 653.869 414.762 658.431 384.874C658.609 383.64 658.659 382.389 658.826 380.58C656.794 380.498 654.76 380.536 652.733 380.694C640.39 382.448 628.377 386.261 617.12 391.999C604.951 398.231 593.482 405.95 582.935 415.006C561.099 433.732 540.516 453.845 522.907 477.335C510.738 493.558 498.558 509.762 486.364 525.947C480.129 534.141 473.857 542.316 467.321 550.118C452.012 568.405 437.544 587.589 420.518 604.103C408.868 615.415 397.387 626.942 385.305 637.686C365.499 655.323 343.799 669.562 319.265 678.119C286.179 690.077 250.21 688.858 217.804 674.682C191.646 663.81 170.065 642.895 157.173 615.924C147.986 596.705 142.052 575.864 139.655 554.393C137.237 534.394 136.387 514.214 137.115 494.07C137.949 468.255 142.328 443.068 147.809 418.039C154.249 389.388 163.075 361.438 174.178 334.53C174.949 332.651 175.7 330.751 176.415 328.852C176.489 328.441 176.512 328.02 176.483 327.601C175.666 327.001 174.755 326.224 173.774 325.667C144.574 307.956 123.278 282.238 108.287 250.052C99.647 231.519 94.0975 211.817 88.6561 192.033C82.9205 171.204 77.33 150.312 70.7944 129.775C64.0091 108.601 55.0314 88.3228 44.0335 69.33C23.9394 34.4606 -4.80748 12.5935 -41.2301 2.16247L-45.8116 0.918563L-46 -9.13955C-44.2915 -8.81434 -42.8789 -8.64239 -41.499 -8.27133C-2.22056 2.16576 29.0182 25.1173 50.9313 62.2945C68.0995 91.4635 79.7158 123.277 88.8637 156.228C94.7569 177.65 100.178 199.28 106.853 220.449C115.746 248.582 129.435 273.768 149.755 294.285C158.24 302.846 167.627 310.291 177.72 316.464C178.572 317.004 179.569 317.422 180.808 318.093C181.652 316.232 182.426 314.59 183.145 312.909C192.876 290.023 203.051 267.367 215.372 245.961C227.375 225.116 240.008 204.697 255.671 186.8C288.028 149.558 329.283 122.774 374.875 109.411C401.492 101.119 429.223 97.7617 456.9 99.4788C476.833 100.534 495.89 108.775 511.048 122.894C523.01 134.121 529.34 148.569 531.76 165.333C535.653 192.389 529.407 216.579 514.825 238.484C501.352 258.886 484.53 276.422 465.197 290.219C423.442 320.072 376.084 339.522 326.518 347.175C303.653 350.991 280.465 352.091 257.365 350.456C234.392 348.829 211.777 343.368 190.319 334.268L185.652 332.371C184.999 333.653 184.378 334.697 183.886 335.817C166.27 377.51 154.419 421.806 148.713 467.279C144.343 501.921 145.449 537.133 151.982 571.408C154.993 587.463 160.526 602.847 168.339 616.885C184.153 645.088 207.269 662.436 236.458 670.78C272.531 681.079 306.945 676.167 339.901 657.927C359.288 647.204 376.507 633.168 392.893 617.699C427.627 584.898 458.071 547.831 486.758 508.892C500.255 490.606 514.173 472.676 528.513 455.102C545.119 434.726 564.269 417.26 584.434 401.204C601.658 387.466 620.595 377.168 641.706 372.526C647.849 371.16 654.116 370.507 660.796 369.429C661.1 368.094 661.509 366.459 661.825 364.786C668.648 329.971 681.576 296.919 699.907 267.424C720.402 233.779 745.73 205.044 773.665 178.721C793.171 160.23 814.994 144.822 838.489 132.952C857.343 123.366 877.9 118.323 898.749 118.169C919.176 118.084 939.411 119.392 959.285 124.973C975.509 129.431 991.056 136.419 1005.44 145.72C1018.1 154.017 1030.86 162.152 1042.31 172.416C1043.67 173.641 1045.08 174.805 1046.35 176.092C1067.65 197.701 1086.94 221.155 1101.55 248.625C1120.52 284.29 1137.49 321.044 1153.65 358.269C1160.71 374.529 1167.66 390.851 1178.12 404.944C1182.5 410.816 1187.6 416.158 1192.44 421.664C1193.66 422.835 1194.96 423.905 1196.33 424.865C1196.54 423.717 1196.67 422.554 1196.74 421.384C1196.64 416.306 1196.69 411.224 1196.45 406.148C1195.22 385.314 1198.48 365.069 1203.01 344.98C1208.68 320.168 1217.75 296.426 1229.9 274.54C1243.83 248.984 1262.4 226.77 1284.49 209.237C1301.7 195.294 1322.34 187.176 1343.82 185.898C1347.63 185.668 1351.44 185.755 1355.24 185.327C1371.34 183.894 1385.73 189.22 1399.53 197.813C1414.5 207.138 1423.53 221.178 1428.94 238.462C1432.6 249.545 1434.67 261.165 1435.08 272.918C1435.28 283.67 1436.69 294.559 1433.85 305.091C1431.9 312.719 1429.52 320.207 1426.71 327.511C1416.85 351.967 1401.74 372.414 1384.28 390.959C1359.53 417.223 1330.18 434.939 1297.08 445.482C1281.42 450.712 1265.23 453.848 1248.86 454.82C1236.68 455.156 1224.58 452.592 1213.41 447.308C1212.06 446.698 1210.69 446.109 1209.34 445.539C1209.22 445.541 1209.05 445.544 1208.54 445.554C1208.42 446.207 1208.36 446.874 1208.38 447.541C1210.26 464.076 1213.64 480.377 1218.44 496.213C1220.75 503.41 1223.96 510.234 1227.97 516.495C1232.88 524.222 1237.75 531.95 1242.41 539.841C1254.99 561.039 1273.2 571.692 1295.97 572.734C1309.25 573.318 1322.6 572.572 1335.9 571.827C1349.38 570.91 1362.54 567.081 1374.62 560.563C1381.23 557.19 1387.68 553.446 1393.93 549.346C1422.74 530.503 1449.22 507.76 1472.73 481.664C1483.96 469.155 1493.26 454.769 1500.29 439.055C1501.08 437.594 1501.98 436.209 1502.99 434.916L1503.26 450.152ZM189.648 322.849C191.219 323.653 192.366 324.307 193.582 324.76C215.815 334.355 239.388 339.76 263.279 340.74C288.311 341.8 313.366 339.853 337.986 334.934C384.328 325.814 428.284 305.977 466.867 276.772C483.492 264.002 497.831 248.059 509.187 229.719C520.523 212.5 525.511 191.297 523.175 170.257C521.126 150.787 513.365 135.175 497.971 124.489C484.238 114.791 468.282 109.459 451.918 109.098C425.681 108.33 399.509 112.042 374.361 120.097C319.154 137.842 274.644 171.58 241.147 222.536C220.98 253.1 204.884 286.028 190.548 320.094C190.289 320.912 190.064 321.65 189.648 322.849ZM1206.15 408.725C1206.27 415.53 1206.4 422.354 1206.53 429.159C1206.52 430.339 1206.84 431.496 1207.46 432.469C1208.08 433.442 1208.96 434.184 1209.98 434.592C1225.54 443.437 1243.29 446.645 1260.62 443.744C1272.8 441.966 1284.81 439.031 1296.5 434.975C1318.51 427.378 1339.41 417.441 1357.83 402.072C1374.61 388.274 1389.48 371.959 1402.01 353.615C1410.81 340.928 1417.67 326.79 1422.33 311.737C1424.31 305.447 1425.55 298.909 1426.01 292.278C1426.66 281.009 1426.04 269.694 1424.19 258.575C1422.25 246.51 1418.31 234.918 1412.57 224.36C1403.68 208.353 1377.97 194.784 1361.94 195.263C1356.08 195.373 1350.25 195.859 1344.4 196.088C1329.72 196.755 1315.39 201.099 1302.53 208.78C1287.67 217.393 1275.26 229.414 1263.81 242.647C1246.24 263.089 1232.34 286.902 1222.8 312.876C1211.32 343.574 1204.59 375.314 1206.15 408.725ZM669.393 379.806C669.087 380.452 668.824 381.12 668.606 381.806C668.306 383.359 668.042 384.912 667.815 386.484C662.204 423.584 659.96 461.201 661.115 498.798C661.936 526.604 667.457 554.025 677.403 579.701C682.65 593.716 690.184 606.598 699.644 617.726C710.627 630.4 723.415 639.785 739.181 643.935C748.866 646.655 758.978 647.041 768.803 645.067C780.872 642.464 791.552 634.95 798.65 624.066C808.892 608.762 816.3 591.445 820.467 573.071C825.326 552.003 824.1 530.513 822.364 509.172C821.248 495.579 817.834 482.366 814.293 469.255C810.953 456.88 805.788 445.168 798.999 434.573C784.145 411.691 763.722 397.369 739.332 389.193C724.575 384.457 709.367 381.592 694.011 380.655C685.873 380.113 677.672 380.088 669.393 379.806Z" fill="white"/>
</svg>
